<?xml version="1.0" encoding="utf-8"?>
<!-- Generator: Adobe Illustrator 25.2.3, SVG Export Plug-In . SVG Version: 6.00 Build 0)  -->
<svg version="1.1" xmlns="http://www.w3.org/2000/svg" xmlns:xlink="http://www.w3.org/1999/xlink" x="0px" y="0px"
	 viewBox="0 0 16 16" style="enable-background:new 0 0 16 16;" xml:space="preserve">
<style type="text/css">
	.st0{fill:#6D76E7;}
	.st1{fill:#1C2EDE;}
	.st2{fill:#FFAA20;}
	.st3{fill:#E67500;}
	.st4{fill:#FFE670;}
	.st5{fill:#FFD400;}
	.st6{fill:#FF9A00;}
	.st7{fill:#00D9E0;}
</style>
<g id="Capa_1">
	<g>
		<circle class="st0" cx="-286" cy="35.3" r="256"/>
		<path class="st1" d="M-30,35.3c0-9.8-0.6-19.5-1.7-29.1l-121.4-121.4h-137.6l-45.3-44.6l-46.5,12l8.4,32.6h-64.1v287L-321,288.9
			c11.4,1.6,23.1,2.4,34.9,2.4C-144.7,291.3-30,176.7-30,35.3z"/>
		<rect x="-418.9" y="-96" class="st2" width="285" height="287"/>
		<rect x="-276.4" y="-96" class="st3" width="142.5" height="287"/>
		<polygon class="st4" points="-153.1,-115.2 -438.1,-115.2 -438.1,171.8 -232.8,171.8 -153.1,92.1 		"/>
		<polygon class="st5" points="-153.1,-115.2 -153.1,92.1 -232.8,171.8 -295.6,171.8 -295.6,-115.2 		"/>
		<polygon class="st6" points="-232.8,171.8 -153.1,92.1 -232.8,92.1 		"/>
		
			<rect x="-373.3" y="-155.1" transform="matrix(0.9681 -0.2505 0.2505 0.9681 17.7205 -91.1621)" class="st7" width="48" height="79.8"/>
	</g>
</g>
<g id="Layer_2">
	<g>
		<circle class="st0" cx="63.7" cy="-156.7" r="64"/>
		<path class="st1" d="M127.7-156.7c0-2.5-0.1-4.9-0.4-7.3L97-194.3H62.6l-11.3-11.2l-11.6,3l2.1,8.2h-16v71.8L55-93.3
			c2.9,0.4,5.8,0.6,8.7,0.6C99.1-92.7,127.7-121.3,127.7-156.7z"/>
		<rect x="30.5" y="-189.5" class="st2" width="71.3" height="71.8"/>
		<rect x="66.2" y="-189.5" class="st3" width="35.6" height="71.8"/>
		<polygon class="st4" points="97,-194.3 25.7,-194.3 25.7,-122.6 77.1,-122.6 97,-142.5 		"/>
		<polygon class="st5" points="97,-194.3 97,-142.5 77.1,-122.6 61.4,-122.6 61.4,-194.3 		"/>
		<polygon class="st6" points="77.1,-122.6 97,-142.5 77.1,-142.5 		"/>
		
			<rect x="41.9" y="-204.3" transform="matrix(0.9681 -0.2505 0.2505 0.9681 50.2027 5.8154)" class="st7" width="12" height="19.9"/>
	</g>
</g>
<g id="Layer_3">
	<g>
		<circle class="st0" cx="24" cy="-47.4" r="24"/>
		<path class="st1" d="M48-47.4c0-0.9-0.1-1.8-0.2-2.7L36.5-61.5H23.6l-4.2-4.2L15-64.5l0.8,3.1h-6v26.9l11,11
			c1.1,0.1,2.2,0.2,3.3,0.2C37.3-23.4,48-34.1,48-47.4z"/>
		<rect x="11.5" y="-59.7" class="st2" width="26.7" height="26.9"/>
		<rect x="24.9" y="-59.7" class="st3" width="13.4" height="26.9"/>
		<polygon class="st4" points="36.5,-61.5 9.7,-61.5 9.7,-34.6 29,-34.6 36.5,-42.1 		"/>
		<polygon class="st5" points="36.5,-61.5 36.5,-42.1 29,-34.6 23.1,-34.6 23.1,-61.5 		"/>
		<polygon class="st6" points="29,-34.6 36.5,-42.1 29,-42.1 		"/>
		
			<rect x="15.8" y="-65.2" transform="matrix(0.9681 -0.2505 0.2505 0.9681 15.9797 2.5671)" class="st7" width="4.5" height="7.5"/>
	</g>
</g>
<g id="Layer_4">
	<g>
		<circle class="st0" cx="80" cy="-55.4" r="16"/>
		<path class="st1" d="M96.1-55.4c0-0.6,0-1.2-0.1-1.8l-7.6-7.6h-8.6l-2.8-2.8L74-66.8l0.5,2h-4v18l7.3,7.3c0.7,0.1,1.4,0.1,2.2,0.1
			C88.9-39.3,96.1-46.5,96.1-55.4z"/>
		<rect x="71.7" y="-63.6" class="st2" width="17.8" height="18"/>
		<rect x="80.6" y="-63.6" class="st3" width="8.9" height="18"/>
		<polygon class="st4" points="88.4,-64.8 70.5,-64.8 70.5,-46.8 83.4,-46.8 88.4,-51.8 		"/>
		<polygon class="st5" points="88.4,-64.8 88.4,-51.8 83.4,-46.8 79.4,-46.8 79.4,-64.8 		"/>
		<polygon class="st6" points="83.4,-46.8 88.4,-51.8 83.4,-51.8 		"/>
		<rect x="74.6" y="-67.3" transform="matrix(0.9681 -0.2505 0.2505 0.9681 18.6517 16.9908)" class="st7" width="3" height="5"/>
	</g>
</g>
<g id="Layer_5">
	<g>
		<circle class="st0" cx="8" cy="8" r="8"/>
		<path class="st1" d="M16,8c0-0.3,0-0.6-0.1-0.9l-3.8-3.8H7.9L6.4,1.9L5,2.3l0.3,1h-2v9l3.7,3.7C7.3,16,7.6,16,8,16
			C12.4,16,16,12.4,16,8z"/>
		<rect x="3.9" y="3.9" class="st2" width="8.9" height="9"/>
		<rect x="8.3" y="3.9" class="st3" width="4.5" height="9"/>
		<polygon class="st4" points="12.2,3.3 3.2,3.3 3.2,12.3 9.7,12.3 12.2,9.8 		"/>
		<polygon class="st5" points="12.2,3.3 12.2,9.8 9.7,12.3 7.7,12.3 7.7,3.3 		"/>
		<polygon class="st6" points="9.7,12.3 12.2,9.8 9.7,9.8 		"/>
		<rect x="5.3" y="2.1" transform="matrix(0.9681 -0.2505 0.2505 0.9681 -0.6341 1.6155)" class="st7" width="1.5" height="2.5"/>
	</g>
</g>
</svg>
